<svg width="16" height="16" viewBox="0 0 16 16" fill="none" xmlns="http://www.w3.org/2000/svg">
<g clip-path="url(#clip0_79_91)">
<path d="M15.2181 11.9535C15.1304 11.04 14.3149 10.3226 13.3652 10.3226C13.2516 10.3226 13.1613 10.2322 13.1613 10.1187V7.07867C13.1613 4.8206 11.7162 2.85158 9.72646 2.11611C9.74969 1.99996 9.76257 1.88128 9.76257 1.76255C9.76261 0.789693 8.97296 0 8.00003 0C7.02709 0 6.23744 0.789693 6.23744 1.76259C6.23744 1.87873 6.25032 1.99483 6.27097 2.10581C5.58712 2.34839 4.95485 2.7329 4.4155 3.25419C3.39874 4.23484 2.83875 5.55354 2.83875 6.96774V10.1187C2.83875 10.2297 2.74842 10.3226 2.63486 10.3226C1.68261 10.3226 0.869684 11.04 0.781941 11.9536C0.732897 12.462 0.90067 12.9678 1.24389 13.3445C1.58452 13.7187 2.07228 13.9355 2.58064 13.9355H5.69292C5.82195 15.0942 6.80777 16 8.00003 16C9.19228 16 10.1781 15.0942 10.3071 13.9355H13.4194C13.9278 13.9355 14.4155 13.7187 14.7562 13.3445C15.0968 12.9677 15.2672 12.4619 15.2181 11.9535ZM8.00003 1.03224C8.40259 1.03224 8.73033 1.35998 8.73033 1.76255C8.73033 1.79607 8.72516 1.82706 8.71999 1.86059C8.5445 1.83477 8.36643 1.81672 8.18836 1.81155C7.88125 1.8012 7.57932 1.82189 7.27998 1.86318C7.2748 1.82965 7.26963 1.79866 7.26963 1.76513C7.26972 1.35998 7.59747 1.03224 8.00003 1.03224ZM8.00003 14.9677C7.37811 14.9677 6.85681 14.5238 6.7355 13.9355H9.26451C9.14328 14.5239 8.62199 14.9677 8.00003 14.9677ZM13.9923 12.6503C13.8426 12.8129 13.6413 12.9032 13.4194 12.9032H2.58069C2.35874 12.9032 2.15748 12.8129 2.00777 12.6503C1.85809 12.4877 1.78841 12.2735 1.81164 12.0516C1.84775 11.6619 2.21165 11.3548 2.63744 11.3548C3.31875 11.3548 3.87357 10.8 3.87357 10.1187V6.96774C3.87357 5.83741 4.32259 4.78195 5.13551 3.99742C5.90969 3.24647 6.92133 2.8387 8.00003 2.8387C8.05166 2.8387 8.10066 2.8387 8.15228 2.84128C10.3432 2.91869 12.1291 4.82065 12.1291 7.07871V10.1187C12.1291 10.8 12.6839 11.3548 13.3652 11.3548C13.791 11.3548 14.1549 11.6619 14.191 12.0516C14.2116 12.2735 14.142 12.4852 13.9923 12.6503Z" fill="#36AA71"/>
<path d="M1.31615 6.19357C1.55357 6.19357 1.76775 6.02843 1.81938 5.78843C2.06969 4.65551 2.63485 3.62328 3.46066 2.80264C3.66196 2.60134 3.66196 2.27359 3.46066 2.07233C3.25936 1.87103 2.93161 1.87103 2.73035 2.07233C1.76521 3.03226 1.10196 4.24261 0.810374 5.56902C0.748445 5.84773 0.923932 6.12384 1.20264 6.18323C1.24392 6.19099 1.28004 6.19357 1.31615 6.19357Z" fill="#36AA71"/>
<path d="M14.6839 6.19355C14.72 6.19355 14.7587 6.18837 14.7949 6.18066C15.0736 6.11873 15.249 5.84516 15.1871 5.56645C14.8955 4.24 14.2323 3.03227 13.2671 2.06968C13.0658 1.86838 12.7381 1.86838 12.5368 2.06968C12.3355 2.27098 12.3355 2.59873 12.5368 2.79998C13.36 3.62062 13.9278 4.6529 14.1781 5.78577C14.2323 6.02836 14.4465 6.19355 14.6839 6.19355Z" fill="#36AA71"/>
</g>
<defs>
<clipPath id="clip0_79_91">
<rect width="16" height="16" fill="white"/>
</clipPath>
</defs>
</svg>
