<svg width="12" height="10" viewBox="0 0 12 10" fill="none" xmlns="http://www.w3.org/2000/svg">
<path d="M7.86101 5.82925C7.86101 6.80749 7.06522 7.60329 6.08698 7.60329C5.10873 7.60329 4.31324 6.80749 4.31324 5.82925C4.31324 4.851 5.10873 4.05521 6.08698 4.05521C7.06522 4.05521 7.86101 4.85131 7.86101 5.82925ZM11.587 3.3102V8.3489C11.587 9.02063 11.0424 9.56525 10.3706 9.56525H1.80332C1.13159 9.56525 0.586975 9.02063 0.586975 8.3489V3.3102C0.586975 2.63848 1.13159 2.09386 1.80332 2.09386H3.29942V1.673C3.29942 1.08521 3.77562 0.608704 4.36372 0.608704H7.81023C8.39833 0.608704 8.87453 1.08521 8.87453 1.673V2.09355H10.3706C11.0424 2.09386 11.587 2.63848 11.587 3.3102ZM8.77327 5.82925C8.77327 4.34805 7.56818 3.14296 6.08698 3.14296C4.60608 3.14296 3.40099 4.34805 3.40099 5.82925C3.40099 7.31045 4.60608 8.51554 6.08698 8.51554C7.56818 8.51554 8.77327 7.31045 8.77327 5.82925Z" fill="white"/>
</svg>
