<svg width="39" height="39" viewBox="0 0 39 39" fill="none" xmlns="http://www.w3.org/2000/svg">
<path d="M33.0921 0.940918H5.90788C4.47412 0.942548 3.09955 1.51283 2.08573 2.52665C1.07191 3.54047 0.50163 4.91503 0.5 6.34879L0.5 25.7129C0.50163 27.1467 1.07191 28.5212 2.08573 29.535C3.09955 30.5489 4.47412 31.1191 5.90788 31.1208H8.48594V35.5516C8.48432 35.9915 8.59892 36.424 8.81816 36.8054C9.03739 37.1867 9.35347 37.5034 9.73441 37.7233C10.1154 37.9433 10.5476 38.0587 10.9875 38.0579C11.4274 38.0571 11.8593 37.9401 12.2394 37.7188L23.6677 31.1208H33.0921C34.5259 31.1191 35.9004 30.5489 36.9143 29.535C37.9281 28.5212 38.4984 27.1467 38.5 25.7129V6.34879C38.4984 4.91503 37.9281 3.54047 36.9143 2.52665C35.9004 1.51283 34.5259 0.942548 33.0921 0.940918ZM36.125 25.7129C36.1241 26.517 35.8043 27.2879 35.2357 27.8565C34.6671 28.425 33.8962 28.7449 33.0921 28.7458H23.3496C23.1411 28.7458 22.9363 28.8006 22.7558 28.9049L11.0521 35.6621C11.0327 35.6733 11.0107 35.6792 10.9884 35.6792C10.966 35.6792 10.9441 35.6733 10.9247 35.6622C10.9053 35.651 10.8892 35.6349 10.8781 35.6155C10.8669 35.5962 10.861 35.5742 10.861 35.5519V29.9335C10.861 29.6186 10.7359 29.3165 10.5132 29.0938C10.2905 28.8711 9.98846 28.746 9.67351 28.746H5.90788C5.10375 28.7451 4.33281 28.4252 3.76423 27.8566C3.19564 27.288 2.87584 26.517 2.875 25.7129V6.34879C2.8759 5.5447 3.19573 4.7738 3.76431 4.20522C4.33289 3.63665 5.10378 3.31682 5.90788 3.31592H33.0921C33.8962 3.31682 34.6671 3.63665 35.2357 4.20522C35.8043 4.7738 36.1241 5.5447 36.125 6.34879V25.7129ZM27.5389 11.9337H27.536L22.5167 11.9434L20.9748 7.16675C20.8741 6.85483 20.6771 6.58286 20.4121 6.38994C20.1471 6.19702 19.8278 6.0931 19.5 6.0931C19.1723 6.0931 18.8529 6.19702 18.5879 6.38994C18.323 6.58286 18.126 6.85483 18.0253 7.16675L16.4834 11.9434L11.464 11.9337H11.4611C11.1335 11.9337 10.8143 12.0374 10.5494 12.2301C10.2845 12.4228 10.0874 12.6944 9.98645 13.0061C9.88553 13.3177 9.88595 13.6533 9.98766 13.9647C10.0894 14.2761 10.2871 14.5472 10.5526 14.7392L14.619 17.6817L13.0587 22.4524C12.9568 22.7639 12.9564 23.0998 13.0574 23.4116C13.1584 23.7234 13.3556 23.9952 13.6208 24.1879C13.886 24.3805 14.2055 24.4841 14.5332 24.4838C14.861 24.4835 15.1803 24.3792 15.4451 24.1861L19.5 21.2278L23.5552 24.186C23.82 24.3791 24.1392 24.4833 24.467 24.4836C24.7948 24.4839 25.1142 24.3802 25.3793 24.1875C25.6445 23.9949 25.8417 23.7231 25.9427 23.4113C26.0437 23.0994 26.0432 22.7636 25.9413 22.4521L24.3811 17.6816L28.4473 14.7393C28.7127 14.5473 28.9105 14.2762 29.0122 13.9648C29.1139 13.6534 29.1143 13.3178 29.0134 13.0062C28.9125 12.6945 28.7154 12.4229 28.4505 12.2302C28.1856 12.0376 27.8664 11.9338 27.5389 11.9338V11.9337ZM22.5013 16.1101C22.2347 16.302 22.0362 16.574 21.9347 16.8864C21.8331 17.1988 21.8338 17.5355 21.9367 17.8475L22.8893 20.7604L20.4134 18.9543C20.1485 18.7601 19.8285 18.6554 19.5 18.6554C19.1715 18.6554 18.8516 18.7601 18.5867 18.9543L16.1107 20.7605L17.0634 17.8475C17.1661 17.5356 17.1668 17.1991 17.0653 16.8868C16.9638 16.5745 16.7654 16.3027 16.4989 16.1108L14.016 14.3136L17.0812 14.3195H17.084C17.412 14.3202 17.7317 14.2166 17.9968 14.0236C18.2619 13.8306 18.4588 13.5582 18.5588 13.2459L19.5 10.3292L20.4415 13.246C20.5415 13.5583 20.7384 13.8307 21.0036 14.0237C21.2687 14.2167 21.5884 14.3203 21.9164 14.3195H21.9192L24.984 14.3136L22.5013 16.1101Z" fill="white"/>
</svg>
