<svg width="14" height="14" viewBox="0 0 14 14" fill="none" xmlns="http://www.w3.org/2000/svg">
<path d="M11.4333 2.56667C9 0.133335 5 0.133335 2.56667 2.56667C0.133335 5 0.133335 9 2.56667 11.4333C3.8 12.6667 5.4 13.2667 7 13.2667C8.6 13.2667 10.2 12.6667 11.4333 11.4333C13.8667 9 13.8667 5 11.4333 2.56667ZM10.9667 10.9667C8.8 13.1333 5.23334 13.1333 3.06667 10.9667C0.900002 8.8 0.900002 5.23334 3.06667 3.06667C4.16667 1.96667 5.6 1.43334 7.03334 1.43334C8.46667 1.43334 9.9 1.96667 11 3.06667C13.1333 5.23334 13.1333 8.76667 10.9667 10.9667ZM7.2 6.13334C7.26667 6.2 7.33334 6.3 7.33334 6.43334V9.63334C7.33334 9.76667 7.3 9.86667 7.2 9.93334C7.1 10 7.03334 10.0333 6.9 10.0333C6.8 10.0333 6.7 10 6.6 9.93334C6.53334 9.86667 6.46667 9.76667 6.46667 9.63334V6.43334C6.46667 6.3 6.5 6.2 6.6 6.13334C6.7 6.06667 6.76667 6.03334 6.9 6.03334C7.03334 6.03334 7.13334 6.06667 7.2 6.13334ZM7.3 4.33334C7.4 4.43334 7.43334 4.53334 7.43334 4.66667C7.43334 4.8 7.4 4.93334 7.3 5C7.2 5.1 7.1 5.13334 6.93334 5.13334C6.76667 5.13334 6.66667 5.1 6.56667 5C6.46667 4.9 6.43334 4.8 6.43334 4.66667C6.43334 4.53334 6.46667 4.4 6.56667 4.33334C6.66667 4.23334 6.8 4.2 6.93334 4.2C7.06667 4.2 7.2 4.23334 7.3 4.33334Z" fill="#8E9394"/>
</svg>
