<svg width="36" height="29" viewBox="0 0 36 29" fill="none" xmlns="http://www.w3.org/2000/svg">
<path id="Vector" d="M0 25.8889V3.88889C0 3.04889 0.3 2.34889 0.88 1.76889C1.46 1.16889 2.16 0.888885 3 0.888885H33C33.84 0.888885 34.54 1.18889 35.12 1.76889C35.72 2.34889 36 3.04889 36 3.88889V25.8889C36 26.7289 35.7 27.4289 35.12 28.0089C34.54 28.6089 33.84 28.8889 33 28.8889H3C2.16 28.8889 1.46 28.5889 0.88 28.0089C0.28 27.4289 0 26.7289 0 25.8889ZM3 9.24889H8.3V3.88889H3V9.22889V9.24889ZM11.3 9.24889H33V3.88889H11.3V9.22889V9.24889ZM11.3 17.5289H33V12.2289H11.3V17.5289ZM11.3 25.8889H33V20.5289H11.3V25.8889ZM3 25.8889H8.3V20.5289H3V25.8889ZM3 17.5289H8.3V12.2289H3V17.5289Z" fill="white" stroke="#36AA71" stroke-width="0.823529"/>
</svg>
