<svg width="18" height="14" viewBox="0 0 18 14" fill="none" xmlns="http://www.w3.org/2000/svg">
<g clip-path="url(#clip0_13_92)">
<path class="wrapper-icon" d="M0 12.5V1.5C0 1.08 0.15 0.73 0.44 0.44C0.73 0.14 1.08 0 1.5 0H16.5C16.92 0 17.27 0.15 17.56 0.44C17.86 0.73 18 1.08 18 1.5V12.5C18 12.92 17.85 13.27 17.56 13.56C17.27 13.86 16.92 14 16.5 14H1.5C1.08 14 0.73 13.85 0.44 13.56C0.14 13.27 0 12.92 0 12.5ZM1.5 4.18H4.15V1.5H1.5V4.17V4.18ZM5.65 4.18H16.5V1.5H5.65V4.17V4.18ZM5.65 8.32H16.5V5.67H5.65V8.32ZM5.65 12.5H16.5V9.82H5.65V12.5ZM1.5 12.5H4.15V9.82H1.5V12.5ZM1.5 8.32H4.15V5.67H1.5V8.32Z" fill="#A1A7A8"/>
</g>
<defs>
<clipPath id="clip0_13_92">
<rect width="18" height="14" fill="white"/>
</clipPath>
</defs>
</svg>
