<svg width="13" height="16" viewBox="0 0 13 16" fill="none" xmlns="http://www.w3.org/2000/svg">
<path class="wrapper-icon" d="M6.40984 3.43944C4.77197 3.43944 3.43944 4.77197 3.43944 6.40984C3.43944 8.04772 4.77197 9.38025 6.40984 9.38025C8.04772 9.38025 9.38025 8.04772 9.38025 6.40984C9.38025 4.77197 8.04775 3.43944 6.40984 3.43944ZM6.40984 8.12956C5.46159 8.12956 4.69013 7.35809 4.69013 6.40984C4.69013 5.46159 5.46159 4.69013 6.40984 4.69013C7.35809 4.69013 8.12956 5.46159 8.12956 6.40984C8.12956 7.35809 7.35809 8.12956 6.40984 8.12956Z" fill="#A1A7A8"/>
<path class="wrapper-icon" d="M6.40984 0C2.87544 0 0 2.87547 0 6.40984V6.58703C0 8.37453 1.02481 10.4575 3.04606 12.7781C4.51131 14.4603 5.95609 15.6333 6.01684 15.6824L6.40984 16L6.80284 15.6825C6.86363 15.6333 8.30841 14.4603 9.77362 12.7781C11.7948 10.4575 12.8197 8.37456 12.8197 6.58706V6.40987C12.8197 2.87547 9.94425 0 6.40984 0ZM11.569 6.58706C11.569 9.60784 7.67678 13.2646 6.40984 14.3746C5.14256 13.2642 1.25069 9.60763 1.25069 6.58706V6.40987C1.25069 3.56512 3.56509 1.25072 6.40984 1.25072C9.25459 1.25072 11.569 3.56512 11.569 6.40987V6.58706Z" fill="#A1A7A8"/>
</svg>
