<svg width="36" height="36" viewBox="0 0 36 36" fill="none" xmlns="http://www.w3.org/2000/svg">
<g id="fi_3930297" clip-path="url(#clip0_508_50)">
<g id="Group">
<path id="Vector" d="M35.8093 18C35.6247 17.7407 33.6994 13.1459 28.3536 10.083C25.3036 8.33549 21.7233 7.41177 17.9999 7.41177C14.2765 7.41177 10.6963 8.33549 7.64617 10.083C2.23961 13.1807 0.391747 17.7174 0.19043 18C0.376147 18.2607 2.30038 22.8542 7.64617 25.917C10.6963 27.6645 14.2765 28.5882 17.9999 28.5882C21.7233 28.5882 25.3036 27.6645 28.3536 25.917C33.7601 22.8193 35.608 18.2826 35.8093 18ZM33.4032 18C31.7259 20.9281 29.2385 23.2002 26.232 24.6509C29.3725 20.7712 29.377 15.2344 26.232 11.3492C29.2385 12.7998 31.7259 15.072 33.4032 18ZM9.52932 18C9.52932 13.3293 13.3292 9.52942 17.9999 9.52942C22.6706 9.52942 26.4705 13.3293 26.4705 18C26.4705 22.6707 22.6706 26.4706 17.9999 26.4706C13.3292 26.4706 9.52932 22.6707 9.52932 18ZM2.59664 18C4.27389 15.072 6.76135 12.7998 9.76777 11.3491C8.29523 13.1683 7.41168 15.4827 7.41168 18C7.41168 20.5173 8.29523 22.8317 9.76777 24.6509C6.76135 23.2002 4.27389 20.9281 2.59664 18Z" fill="white"/>
<path id="Vector_2" d="M27.5293 0V2.11765H33.8822V8.47059H35.9999V0H27.5293Z" fill="white"/>
<path id="Vector_3" d="M2.11765 2.11765H8.47059V0H0V8.47059H2.11765V2.11765Z" fill="white"/>
<path id="Vector_4" d="M33.8822 33.8824H27.5293V36H35.9999V27.5294H33.8822V33.8824Z" fill="white"/>
<path id="Vector_5" d="M2.11765 27.5294H0V36H8.47059V33.8824H2.11765V27.5294Z" fill="white"/>
<path id="Vector_6" d="M16.9945 18.6202L14.7484 16.3741L13.251 17.8715L16.9945 21.615L22.984 15.6254L21.4867 14.1281L16.9945 18.6202Z" fill="white"/>
</g>
</g>
<defs>
<clipPath id="clip0_508_50">
<rect width="36" height="36" fill="white"/>
</clipPath>
</defs>
</svg>
